<svg width="107" height="107" viewBox="0 0 107 107" fill="none" xmlns="http://www.w3.org/2000/svg">
<path d="M37.8961 22.2916L33.4373 11.1458C28.6073 13.0034 18.2792 24.075 20.0625 40.125" stroke="#652725" stroke-width="6" stroke-linecap="round" stroke-linejoin="round"/>
<path d="M69.1039 22.2916L73.5627 11.1458C78.3927 13.0034 88.7208 24.075 86.9375 40.125" stroke="#652725" stroke-width="6" stroke-linecap="round" stroke-linejoin="round"/>
<path d="M93.625 63.5312C93.625 85.0761 75.6604 95.8542 53.5 95.8542C31.3396 95.8542 13.375 85.0761 13.375 63.5312C13.375 41.9864 31.3396 20.0625 53.5 20.0625C75.6604 20.0625 93.625 41.9864 93.625 63.5312Z" stroke="#652725" stroke-width="6"/>
<path d="M46.0417 37.8958C46.0417 38.7012 45.3887 39.3542 44.5833 39.3542C43.7779 39.3542 43.125 38.7012 43.125 37.8958C43.125 37.0904 43.7779 36.4375 44.5833 36.4375C45.3887 36.4375 46.0417 37.0904 46.0417 37.8958Z" stroke="#652725" stroke-width="6"/>
<path d="M63.875 37.8958C63.875 38.7012 63.2221 39.3542 62.4166 39.3542C61.6112 39.3542 60.9583 38.7012 60.9583 37.8958C60.9583 37.0904 61.6112 36.4375 62.4166 36.4375C63.2221 36.4375 63.875 37.0904 63.875 37.8958Z" stroke="#652725" stroke-width="6"/>
<path d="M53.5 57.9583C53.5 61.6518 54.6146 70.2187 46.8125 70.2187C43.119 70.2187 40.125 67.2247 40.125 63.5312" stroke="#652725" stroke-width="6" stroke-linecap="round" stroke-linejoin="round"/>
<path d="M53.5555 57.9583C53.5555 61.6518 52.4409 70.2187 60.243 70.2187C63.9365 70.2187 66.9305 67.2247 66.9305 63.5312" stroke="#652725" stroke-width="6" stroke-linecap="round" stroke-linejoin="round"/>
<path d="M57.9584 57.401C57.9584 58.94 53.5 61.3021 53.5 61.3021C53.5 61.3021 49.0417 58.94 49.0417 57.401C49.0417 55.862 50.1563 54.6146 53.5 54.6146C56.8438 54.6146 57.9584 55.862 57.9584 57.401Z" stroke="#652725" stroke-width="6" stroke-linejoin="round"/>
</svg>
