<svg width="442" height="254" viewBox="0 0 442 254" fill="none" xmlns="http://www.w3.org/2000/svg">
<path d="M71.608 97.92C71.608 88.192 73.528 79.7867 77.368 72.704C81.2933 65.536 87.1387 60.032 94.904 56.192C102.755 52.2667 112.568 50.304 124.344 50.304C128.696 50.304 132.664 50.6453 136.248 51.328C139.832 51.9253 142.52 52.608 144.312 53.376V76.16H142.776C140.984 75.2213 138.637 74.4533 135.736 73.856C132.835 73.1733 129.72 72.832 126.392 72.832C119.736 72.832 114.403 73.9413 110.392 76.16C106.467 78.2933 103.608 81.28 101.816 85.12C100.109 88.8747 99.256 93.1413 99.256 97.92C99.256 102.699 100.109 107.008 101.816 110.848C103.608 114.603 106.467 117.589 110.392 119.808C114.403 121.941 119.736 123.008 126.392 123.008C129.72 123.008 132.835 122.667 135.736 121.984C138.637 121.301 140.984 120.533 142.776 119.68H144.312V142.464C142.52 143.232 139.832 143.915 136.248 144.512C132.664 145.195 128.696 145.536 124.344 145.536C112.568 145.536 102.755 143.616 94.904 139.776C87.1387 135.851 81.2933 130.347 77.368 123.264C73.528 116.096 71.608 107.648 71.608 97.92ZM173.04 124.544V103.04H194.544C198.64 103.04 201.925 102.229 204.4 100.608C206.875 98.9867 208.667 96.896 209.776 94.336C210.885 91.776 211.44 89.0453 211.44 86.144C211.44 82.048 210.203 79.0613 207.728 77.184C205.339 75.3067 202.139 74.368 198.128 74.368H173.04V51.84H198.128C207.429 51.84 215.024 53.248 220.912 56.064C226.885 58.7947 231.323 62.6773 234.224 67.712C237.125 72.6613 238.576 78.464 238.576 85.12C238.576 91.1787 237.381 96.64 234.992 101.504C232.688 106.368 229.531 110.507 225.52 113.92C221.509 117.333 216.901 119.979 211.696 121.856C206.576 123.648 201.2 124.544 195.568 124.544H173.04ZM158.704 144V51.84H185.84V144H158.704ZM210.416 144L194.544 119.424L219.248 114.816L240.112 142.464V144H210.416ZM253.954 144V51.84H276.994L308.482 104.96L297.346 105.088L328.194 51.84H351.234V144H324.098V89.856L329.602 91.264L308.226 128.128H296.962L275.458 92.032L281.09 90.496V144H253.954Z" fill="url(#paint0_linear_1_2)"/>
<path d="M122.144 209V162.92H127.264L143.52 188.264H140.96L157.216 162.92H162.336V209H156.192V172.968L157.536 173.352L144.672 193.128H139.808L126.944 173.352L128.288 172.968V209H122.144ZM186.804 209.768C181.812 209.768 178.057 208.872 175.54 207.08C173.065 205.245 171.828 202.472 171.828 198.76C171.828 196.285 172.425 194.237 173.62 192.616C174.857 190.995 176.585 189.779 178.804 188.968C181.065 188.157 183.732 187.752 186.804 187.752C189.193 187.752 191.177 187.965 192.756 188.392C194.377 188.776 195.764 189.16 196.916 189.544V194.152C195.764 193.768 194.335 193.427 192.628 193.128C190.921 192.787 189.321 192.616 187.828 192.616C184.372 192.616 181.791 193.064 180.084 193.96C178.42 194.856 177.588 196.456 177.588 198.76C177.588 200.936 178.399 202.515 180.02 203.496C181.641 204.435 183.988 204.904 187.06 204.904C188.767 204.904 190.409 204.776 191.988 204.52C193.567 204.221 195.039 203.837 196.404 203.368L195.252 205.096C195.167 204.755 195.081 204.371 194.996 203.944C194.953 203.517 194.911 203.069 194.868 202.6C194.825 202.131 194.783 201.64 194.74 201.128C194.74 200.616 194.74 200.083 194.74 199.528V188.008C194.74 185.277 194.356 183.251 193.588 181.928C192.863 180.563 191.753 179.667 190.26 179.24C188.809 178.771 186.975 178.536 184.756 178.536C183.092 178.536 181.385 178.749 179.636 179.176C177.929 179.603 176.564 180.072 175.54 180.584H175.028V175.336C176.564 174.696 178.271 174.227 180.148 173.928C182.068 173.587 183.86 173.416 185.524 173.416C187.657 173.416 189.62 173.608 191.412 173.992C193.247 174.376 194.847 175.08 196.212 176.104C197.62 177.085 198.708 178.515 199.476 180.392C200.244 182.269 200.628 184.723 200.628 187.752V196.2C200.628 197.053 200.628 198.163 200.628 199.528C200.671 200.893 200.713 202.237 200.756 203.56C200.841 204.883 200.969 205.928 201.14 206.696L201.012 207.208C199.604 207.72 198.047 208.168 196.34 208.552C194.633 208.936 192.927 209.235 191.22 209.448C189.556 209.661 188.084 209.768 186.804 209.768ZM209.578 202.088H210.09C211.626 202.771 213.354 203.325 215.274 203.752C217.237 204.179 219.178 204.392 221.098 204.392C221.695 204.392 222.485 204.371 223.466 204.328C224.49 204.243 225.514 204.051 226.538 203.752C227.605 203.453 228.501 202.941 229.226 202.216C229.951 201.448 230.314 200.381 230.314 199.016C230.314 197.48 229.695 196.392 228.458 195.752C227.221 195.112 225.514 194.621 223.338 194.28L220.266 193.768C216.639 193.171 213.951 192.147 212.202 190.696C210.453 189.203 209.578 187.112 209.578 184.424C209.578 182.547 210.069 180.797 211.05 179.176C212.074 177.512 213.695 176.189 215.914 175.208C218.175 174.184 221.183 173.672 224.938 173.672C226.602 173.672 228.202 173.821 229.738 174.12C231.317 174.376 232.618 174.696 233.642 175.08V180.328H233.13C231.722 179.816 230.378 179.432 229.098 179.176C227.818 178.92 226.346 178.792 224.682 178.792C221.738 178.792 219.413 179.219 217.706 180.072C216.042 180.883 215.21 182.269 215.21 184.232C215.21 185.725 215.807 186.792 217.002 187.432C218.239 188.072 219.946 188.563 222.122 188.904L225.194 189.416C227.157 189.715 228.949 190.248 230.57 191.016C232.191 191.784 233.493 192.829 234.474 194.152C235.455 195.432 235.946 197.053 235.946 199.016C235.946 202.472 234.709 205.096 232.234 206.888C229.759 208.637 225.962 209.512 220.842 209.512C218.666 209.512 216.618 209.341 214.698 209C212.821 208.659 211.114 208.232 209.578 207.72V202.088ZM256.194 209.512C253.207 209.512 250.818 209.043 249.026 208.104C247.234 207.123 245.933 205.779 245.122 204.072C244.311 202.323 243.906 200.296 243.906 197.992V164.712H249.794V197.48C249.794 199.912 250.327 201.683 251.394 202.792C252.461 203.859 254.146 204.392 256.45 204.392C257.346 204.392 258.221 204.307 259.074 204.136C259.927 203.923 260.674 203.667 261.314 203.368H261.826V208.36C261.186 208.659 260.375 208.915 259.394 209.128C258.413 209.384 257.346 209.512 256.194 209.512ZM238.53 179.304V174.184H259.778V179.304H238.53ZM285.653 209.512C282.41 209.512 279.573 209.128 277.141 208.36C274.752 207.549 272.746 206.376 271.125 204.84C269.546 203.304 268.373 201.427 267.605 199.208C266.837 196.947 266.453 194.365 266.453 191.464C266.453 187.837 267.114 184.68 268.437 181.992C269.802 179.261 271.68 177.149 274.069 175.656C276.501 174.163 279.338 173.416 282.581 173.416C286.336 173.416 289.365 174.184 291.669 175.72C293.973 177.256 295.616 179.411 296.597 182.184C297.621 184.957 298.069 188.179 297.941 191.848L297.877 193.64H270.549V188.776H291.797V188.264C291.797 185.064 291.029 182.653 289.493 181.032C287.957 179.368 285.653 178.536 282.581 178.536C280.789 178.536 279.125 178.92 277.589 179.688C276.053 180.456 274.816 181.757 273.877 183.592C272.938 185.427 272.469 187.923 272.469 191.08V191.464C272.469 194.749 273.045 197.331 274.197 199.208C275.349 201.085 276.928 202.429 278.933 203.24C280.981 204.008 283.306 204.392 285.909 204.392C288.085 204.392 289.941 204.179 291.477 203.752C293.013 203.325 294.229 202.856 295.125 202.344H295.637V207.592C294.613 208.104 293.269 208.552 291.605 208.936C289.941 209.32 287.957 209.512 285.653 209.512ZM307.457 209V186.984C307.457 186.131 307.435 185.021 307.393 183.656C307.393 182.291 307.35 180.947 307.265 179.624C307.222 178.301 307.115 177.256 306.945 176.488L307.073 175.976C308.182 175.549 309.547 175.187 311.169 174.888C312.833 174.589 314.475 174.355 316.097 174.184C317.761 174.013 319.147 173.928 320.257 173.928C321.281 173.928 322.113 173.949 322.753 173.992C323.393 174.035 323.926 174.099 324.353 174.184V179.304H323.841C323.286 179.219 322.625 179.155 321.857 179.112C321.089 179.069 320.385 179.048 319.745 179.048C318.422 179.048 317.035 179.155 315.585 179.368C314.134 179.581 312.875 179.795 311.809 180.008L312.961 178.408C313.217 179.816 313.345 181.565 313.345 183.656V209H307.457Z" fill="#170229"/>
<defs>
<linearGradient id="paint0_linear_1_2" x1="221" y1="29" x2="221" y2="203" gradientUnits="userSpaceOnUse">
<stop stop-color="#F74FC8"/>
<stop offset="0.46" stop-color="#492767"/>
<stop offset="1" stop-color="#131A48"/>
</linearGradient>
</defs>
</svg>
