<svg width="442" height="254" viewBox="0 0 442 254" fill="none" xmlns="http://www.w3.org/2000/svg">
<path d="M124.04 123.52V102.016H145.544C149.469 102.016 152.584 101.248 154.888 99.712C157.192 98.176 158.856 96.1707 159.88 93.696C160.904 91.2213 161.416 88.5333 161.416 85.632C161.416 81.792 160.264 78.976 157.96 77.184C155.656 75.3067 152.712 74.368 149.128 74.368H124.04V51.84H148.616C161.928 51.84 171.827 54.8267 178.312 60.8C184.797 66.688 188.04 74.624 188.04 84.608C188.04 90.3253 187.101 95.5733 185.224 100.352C183.432 105.131 180.787 109.269 177.288 112.768C173.789 116.181 169.437 118.827 164.232 120.704C159.112 122.581 153.224 123.52 146.568 123.52H124.04ZM109.704 144V51.84H136.84V144H109.704ZM200.829 144V51.84H227.965V144H200.829ZM215.165 144V120.448H264.317V144H215.165ZM215.165 109.696V87.68H257.149V109.696H215.165ZM215.165 75.392V51.84H263.293V75.392H215.165ZM274.06 51.84H352.396V75.392H326.796V144H299.66V75.392H274.06V51.84Z" fill="url(#paint0_linear_9_2)"/>
<path d="M103.144 203V156.92H108.264L124.52 182.264H121.96L138.216 156.92H143.336V203H137.192V166.968L138.536 167.352L125.672 187.128H120.808L107.944 167.352L109.288 166.968V203H103.144ZM167.804 203.768C162.812 203.768 159.057 202.872 156.54 201.08C154.065 199.245 152.828 196.472 152.828 192.76C152.828 190.285 153.425 188.237 154.62 186.616C155.857 184.995 157.585 183.779 159.804 182.968C162.065 182.157 164.732 181.752 167.804 181.752C170.193 181.752 172.177 181.965 173.756 182.392C175.377 182.776 176.764 183.16 177.916 183.544V188.152C176.764 187.768 175.335 187.427 173.628 187.128C171.921 186.787 170.321 186.616 168.828 186.616C165.372 186.616 162.791 187.064 161.084 187.96C159.42 188.856 158.588 190.456 158.588 192.76C158.588 194.936 159.399 196.515 161.02 197.496C162.641 198.435 164.988 198.904 168.06 198.904C169.767 198.904 171.409 198.776 172.988 198.52C174.567 198.221 176.039 197.837 177.404 197.368L176.252 199.096C176.167 198.755 176.081 198.371 175.996 197.944C175.953 197.517 175.911 197.069 175.868 196.6C175.825 196.131 175.783 195.64 175.74 195.128C175.74 194.616 175.74 194.083 175.74 193.528V182.008C175.74 179.277 175.356 177.251 174.588 175.928C173.863 174.563 172.753 173.667 171.26 173.24C169.809 172.771 167.975 172.536 165.756 172.536C164.092 172.536 162.385 172.749 160.636 173.176C158.929 173.603 157.564 174.072 156.54 174.584H156.028V169.336C157.564 168.696 159.271 168.227 161.148 167.928C163.068 167.587 164.86 167.416 166.524 167.416C168.657 167.416 170.62 167.608 172.412 167.992C174.247 168.376 175.847 169.08 177.212 170.104C178.62 171.085 179.708 172.515 180.476 174.392C181.244 176.269 181.628 178.723 181.628 181.752V190.2C181.628 191.053 181.628 192.163 181.628 193.528C181.671 194.893 181.713 196.237 181.756 197.56C181.841 198.883 181.969 199.928 182.14 200.696L182.012 201.208C180.604 201.72 179.047 202.168 177.34 202.552C175.633 202.936 173.927 203.235 172.22 203.448C170.556 203.661 169.084 203.768 167.804 203.768ZM193.394 203V180.984C193.394 180.131 193.373 179.021 193.33 177.656C193.33 176.291 193.287 174.947 193.202 173.624C193.159 172.301 193.053 171.256 192.882 170.488L193.01 169.976C194.119 169.549 195.527 169.144 197.234 168.76C198.941 168.376 200.669 168.056 202.418 167.8C204.167 167.544 205.682 167.416 206.962 167.416C209.095 167.416 211.079 167.651 212.914 168.12C214.749 168.547 216.37 169.336 217.778 170.488C219.229 171.597 220.338 173.133 221.106 175.096C221.917 177.016 222.322 179.491 222.322 182.52V203H216.434V183.032C216.434 180.216 216.029 178.061 215.218 176.568C214.407 175.032 213.234 173.987 211.698 173.432C210.162 172.835 208.327 172.536 206.194 172.536C204.829 172.536 203.357 172.685 201.778 172.984C200.242 173.283 198.898 173.645 197.746 174.072L198.77 172.28C198.941 172.92 199.069 173.731 199.154 174.712C199.239 175.651 199.282 176.632 199.282 177.656V203H193.394ZM246.492 203.768C241.5 203.768 237.745 202.872 235.228 201.08C232.753 199.245 231.516 196.472 231.516 192.76C231.516 190.285 232.113 188.237 233.308 186.616C234.545 184.995 236.273 183.779 238.492 182.968C240.753 182.157 243.42 181.752 246.492 181.752C248.881 181.752 250.865 181.965 252.444 182.392C254.065 182.776 255.452 183.16 256.604 183.544V188.152C255.452 187.768 254.022 187.427 252.316 187.128C250.609 186.787 249.009 186.616 247.516 186.616C244.06 186.616 241.478 187.064 239.772 187.96C238.108 188.856 237.276 190.456 237.276 192.76C237.276 194.936 238.086 196.515 239.708 197.496C241.329 198.435 243.676 198.904 246.748 198.904C248.454 198.904 250.097 198.776 251.676 198.52C253.254 198.221 254.726 197.837 256.092 197.368L254.94 199.096C254.854 198.755 254.769 198.371 254.684 197.944C254.641 197.517 254.598 197.069 254.556 196.6C254.513 196.131 254.47 195.64 254.428 195.128C254.428 194.616 254.428 194.083 254.428 193.528V182.008C254.428 179.277 254.044 177.251 253.276 175.928C252.55 174.563 251.441 173.667 249.948 173.24C248.497 172.771 246.662 172.536 244.444 172.536C242.78 172.536 241.073 172.749 239.324 173.176C237.617 173.603 236.252 174.072 235.228 174.584H234.716V169.336C236.252 168.696 237.958 168.227 239.836 167.928C241.756 167.587 243.548 167.416 245.212 167.416C247.345 167.416 249.308 167.608 251.1 167.992C252.934 168.376 254.534 169.08 255.9 170.104C257.308 171.085 258.396 172.515 259.164 174.392C259.932 176.269 260.316 178.723 260.316 181.752V190.2C260.316 191.053 260.316 192.163 260.316 193.528C260.358 194.893 260.401 196.237 260.444 197.56C260.529 198.883 260.657 199.928 260.828 200.696L260.7 201.208C259.292 201.72 257.734 202.168 256.028 202.552C254.321 202.936 252.614 203.235 250.908 203.448C249.244 203.661 247.772 203.768 246.492 203.768ZM282.066 218.36C280.53 218.36 278.844 218.211 277.01 217.912C275.175 217.656 273.618 217.251 272.338 216.696V211.448H272.85C274.258 212.088 275.794 212.536 277.458 212.792C279.164 213.091 280.7 213.24 282.066 213.24C284.839 213.24 287.058 212.835 288.722 212.024C290.386 211.213 291.58 209.976 292.306 208.312C293.074 206.648 293.458 204.536 293.458 201.976V177.4C293.458 176.376 293.479 175.416 293.522 174.52C293.607 173.624 293.714 172.771 293.842 171.96L294.93 173.752C293.991 173.453 292.924 173.176 291.73 172.92C290.578 172.664 289.319 172.536 287.954 172.536C285.138 172.536 282.791 173.027 280.914 174.008C279.036 174.947 277.628 176.376 276.69 178.296C275.751 180.173 275.282 182.52 275.282 185.336C275.282 189.432 276.327 192.504 278.418 194.552C280.551 196.6 283.73 197.624 287.954 197.624C289.148 197.624 290.279 197.539 291.346 197.368C292.412 197.197 293.586 196.856 294.866 196.344L294.738 201.72C293.287 202.061 292.007 202.317 290.898 202.488C289.788 202.659 288.722 202.744 287.698 202.744C284.028 202.744 280.807 202.104 278.034 200.824C275.26 199.501 273.106 197.56 271.57 195C270.034 192.397 269.266 189.176 269.266 185.336C269.266 182.563 269.671 180.088 270.482 177.912C271.335 175.693 272.572 173.816 274.194 172.28C275.815 170.701 277.778 169.507 280.082 168.696C282.386 167.843 285.01 167.416 287.954 167.416C289.874 167.416 291.9 167.651 294.034 168.12C296.167 168.547 298.066 169.08 299.729 169.72L299.858 170.232C299.687 171 299.559 172.045 299.474 173.368C299.431 174.691 299.388 176.035 299.346 177.4C299.346 178.765 299.346 179.875 299.346 180.728V201.976C299.346 205.389 298.663 208.312 297.298 210.744C295.975 213.219 294.012 215.096 291.41 216.376C288.85 217.699 285.735 218.36 282.066 218.36ZM328.028 203.512C324.785 203.512 321.948 203.128 319.516 202.36C317.127 201.549 315.121 200.376 313.5 198.84C311.921 197.304 310.748 195.427 309.98 193.208C309.212 190.947 308.828 188.365 308.828 185.464C308.828 181.837 309.489 178.68 310.812 175.992C312.177 173.261 314.055 171.149 316.444 169.656C318.876 168.163 321.713 167.416 324.956 167.416C328.711 167.416 331.74 168.184 334.044 169.72C336.348 171.256 337.991 173.411 338.972 176.184C339.996 178.957 340.444 182.179 340.316 185.848L340.252 187.64H312.924V182.776H334.172V182.264C334.172 179.064 333.404 176.653 331.868 175.032C330.332 173.368 328.028 172.536 324.956 172.536C323.164 172.536 321.5 172.92 319.964 173.688C318.428 174.456 317.191 175.757 316.252 177.592C315.313 179.427 314.844 181.923 314.844 185.08V185.464C314.844 188.749 315.42 191.331 316.572 193.208C317.724 195.085 319.303 196.429 321.308 197.24C323.356 198.008 325.681 198.392 328.284 198.392C330.46 198.392 332.316 198.179 333.852 197.752C335.388 197.325 336.604 196.856 337.5 196.344H338.012V201.592C336.988 202.104 335.644 202.552 333.98 202.936C332.316 203.32 330.332 203.512 328.028 203.512ZM349.832 203V180.984C349.832 180.131 349.81 179.021 349.768 177.656C349.768 176.291 349.725 174.947 349.64 173.624C349.597 172.301 349.49 171.256 349.32 170.488L349.448 169.976C350.557 169.549 351.922 169.187 353.544 168.888C355.208 168.589 356.85 168.355 358.472 168.184C360.136 168.013 361.522 167.928 362.632 167.928C363.656 167.928 364.488 167.949 365.128 167.992C365.768 168.035 366.301 168.099 366.728 168.184V173.304H366.216C365.661 173.219 365 173.155 364.232 173.112C363.464 173.069 362.76 173.048 362.12 173.048C360.797 173.048 359.41 173.155 357.96 173.368C356.509 173.581 355.25 173.795 354.184 174.008L355.336 172.408C355.592 173.816 355.72 175.565 355.72 177.656V203H349.832Z" fill="#290202"/>
<defs>
<linearGradient id="paint0_linear_9_2" x1="228" y1="29" x2="228" y2="203" gradientUnits="userSpaceOnUse">
<stop stop-color="#F74F4F"/>
<stop offset="0.46" stop-color="#672927"/>
<stop offset="1" stop-color="#481313"/>
</linearGradient>
</defs>
</svg>
